<?xml version="1.0" standalone="no"?>
<!DOCTYPE svg PUBLIC "-//W3C//DTD SVG 20010904//EN"
 "http://www.w3.org/TR/2001/REC-SVG-20010904/DTD/svg10.dtd">
<svg version="1.0" xmlns="http://www.w3.org/2000/svg"
 width="512.000000pt" height="512.000000pt" viewBox="0 0 512.000000 512.000000"
 preserveAspectRatio="xMidYMid meet">
<metadata>
Created by potrace 1.11, written by Peter Selinger 2001-2013
</metadata>
<g transform="translate(0.000000,512.000000) scale(0.100000,-0.100000)"
fill="#000000" stroke="none">
<path d="M2457 5063 c-1 0 -38 -4 -82 -7 -122 -8 -179 -16 -310 -43 -146 -30
-132 -26 -230 -56 -682 -211 -1247 -700 -1550 -1342 -92 -193 -175 -459 -200
-640 -2 -11 -6 -33 -8 -50 -22 -126 -30 -454 -15 -600 56 -537 266 -1025 613
-1425 78 -90 240 -244 325 -310 25 -19 47 -37 50 -41 22 -27 284 -185 405
-244 129 -64 372 -156 447 -170 13 -3 52 -12 88 -21 36 -9 76 -18 90 -20 14
-3 50 -9 80 -14 194 -33 632 -35 785 -4 11 2 34 6 50 9 308 44 679 193 964
387 164 111 383 305 491 433 239 284 411 594 509 915 31 101 70 266 77 329 3
31 8 59 10 62 17 30 25 483 10 614 -87 767 -520 1454 -1172 1863 -273 170
-645 307 -951 348 -26 3 -56 8 -65 9 -54 11 -404 26 -411 18z m183 -188 c19
-3 67 -10 105 -16 78 -13 99 -16 135 -24 14 -3 36 -7 50 -10 82 -16 256 -75
334 -114 106 -53 104 -51 198 -271 101 -238 207 -547 232 -680 2 -14 11 -59
20 -100 9 -41 18 -93 21 -115 4 -22 8 -51 11 -65 9 -50 18 -218 18 -335 0
-176 -10 -272 -50 -490 -18 -103 -82 -262 -191 -479 -72 -145 -75 -167 -10
-88 10 12 24 28 31 35 111 114 277 575 311 862 2 22 7 60 10 85 6 51 7 304 1
335 -2 11 -7 52 -10 90 -4 39 -9 77 -11 85 -2 8 -6 28 -9 44 -7 37 -27 136
-40 194 -14 61 -75 256 -113 362 -81 224 -93 274 -67 284 59 23 246 -87 391
-231 192 -190 359 -459 463 -742 34 -93 34 -86 -5 -268 -158 -732 -421 -1132
-1008 -1532 -59 -40 -212 -117 -252 -127 -16 -4 -34 -10 -40 -14 -16 -12 -185
-49 -260 -57 -108 -11 -241 -7 -288 8 -23 7 -70 32 -104 55 -44 30 -79 45
-124 53 -57 10 -89 24 -89 40 0 4 27 4 59 1 76 -7 277 -5 366 4 260 27 524
156 620 303 83 126 185 367 225 528 39 157 32 417 -16 635 -61 275 -255 642
-478 905 -171 200 -568 555 -733 655 -127 76 -165 102 -190 129 -30 31 -17 47
50 60 29 6 61 13 72 15 27 5 322 -1 365 -9z m-686 -123 c124 -58 468 -284 641
-421 187 -148 368 -323 488 -473 215 -269 395 -610 423 -803 l7 -50 -58 85
c-287 422 -682 742 -1126 914 -107 41 -335 109 -404 120 -16 2 -52 9 -80 15
-27 5 -77 13 -110 16 -33 4 -69 9 -80 11 -33 6 -234 18 -317 18 -43 1 -78 3
-78 7 0 3 23 16 50 29 60 28 90 57 49 47 -14 -4 -44 -9 -65 -12 -21 -3 -61
-10 -89 -15 -91 -16 -134 -19 -140 -10 -3 6 -2 10 2 10 17 0 123 72 118 80 -4
6 -95 -13 -167 -36 -28 -8 -21 10 20 60 163 197 637 454 811 440 24 -2 72 -17
105 -32z m738 -1377 c442 -60 764 -498 704 -958 -42 -320 -287 -599 -611 -696
-94 -28 -117 -31 -207 -32 -291 -2 -574 152 -730 397 -97 152 -133 280 -132
469 3 422 316 769 739 821 28 4 51 7 53 9 5 4 129 -3 184 -10z m1970 -482 c38
-43 83 -204 95 -338 18 -209 -2 -401 -60 -567 -28 -79 -43 -103 -90 -148 l-35
-33 19 -36 c10 -20 19 -43 19 -52 0 -35 -231 -237 -400 -350 -215 -143 -504
-257 -720 -283 -25 -4 -72 -9 -105 -14 -76 -9 -382 -9 -455 0 -272 35 -552
138 -775 286 -103 67 -162 128 -199 201 -14 28 -26 53 -26 56 0 3 26 -12 58
-33 91 -61 85 -61 77 2 -4 31 -5 56 -2 56 2 0 35 -21 73 -46 112 -75 204 -117
349 -159 109 -32 176 -40 340 -40 174 0 237 8 390 50 410 112 766 378 1041
775 115 165 181 293 273 523 28 70 57 136 63 147 16 25 50 26 70 3z"/>
</g>
</svg>
